<?xml version="1.0" encoding="utf-8"?>
<!-- Svg Vector Icons : http://www.onlinewebfonts.com/icon -->
<!DOCTYPE svg PUBLIC "-//W3C//DTD SVG 1.1//EN" "http://www.w3.org/Graphics/SVG/1.1/DTD/svg11.dtd">
<svg version="1.1" xmlns="http://www.w3.org/2000/svg" xmlns:xlink="http://www.w3.org/1999/xlink" x="0px" y="0px" viewBox="0 0 256 256" enable-background="new 0 0 256 256" xml:space="preserve">
<metadata> Svg Vector Icons : http://www.onlinewebfonts.com/icon </metadata>
<g><g><path fill="#000000" d="M127.7,10c32.7,0,59.3,26.5,59.3,59.3c0,32.7-26.5,59.3-59.3,59.3c-32.7,0-59.3-26.5-59.3-59.3C68.4,36.5,95,10,127.7,10z"/><path fill="#000000" d="M177.2,133.5c-13.9,7.4-31.8,12.6-51.3,12.6c-19.3,0-35.1-6-48.9-13.2c-25.9,18.8-44.5,49.8-44.5,67.6C32.4,228,75.2,246,128,246c52.8,0,95.6-18,95.6-45.5C223.5,182.7,204.7,152.3,177.2,133.5z"/></g></g>
</svg>